# xmcd CD database file
#
# Track frame offsets:
#	150
#	26573
#	52592
#	73310
#	100233
#	123024
#	147578
#	175743
#	202968
#	233038
#
# Disc length: 3437 seconds
#
# Revision: 0
# Processed by: cddbd v1.5.2PL0 Copyright (c) Steve Scherf et al.
# Submitted via: CDex 1.81
#
DISCID=820d6b0a
DTITLE=Various Artist - Twelve Inch Eighties - Hold Me Now [CD2)
DYEAR=2017
DGENRE=80's
TTITLE0=Donna Summer - State Of Independence (Full Length Album Version)
TTITLE1=Jermaine Jackson - Do What You Do (12" Remix Version)
TTITLE2=Champaign - How 'bout Us (12 Version)
TTITLE3=Gregory Abbott - Shake You Down (Extended Club Mix)
TTITLE4=Alexander O'neal - If You Were Here Tonight (Soft Version)
TTITLE5=Pointer Sisters - I Need You (12" Version)
TTITLE6=Terence Trent D'arby - Wishing Well (Three Coins In A Fountain Mix)
TTITLE7=Five Star - Rain Or Shine (Remix)
TTITLE8=Milli Vanilli - Girl I'm Gonna Miss You (Long Version)
TTITLE9=Imagination - In And Out Of Love (12 Version)
EXTD=YEAR: 2017
EXTT0=
EXTT1=
EXTT2=
EXTT3=
EXTT4=
EXTT5=
EXTT6=
EXTT7=
EXTT8=
EXTT9=
PLAYORDER=
